<svg width="216" height="35" viewBox="0 0 216 35" fill="none" xmlns="http://www.w3.org/2000/svg">
<path d="M41.5233 18.8732V34.8239H35V10.1761H41.104L55.1757 26.1268H55.2689V10.1761H61.7922V34.8239H55.6883L41.6165 18.8732H41.5233Z" fill="#EAD512"/>
<path d="M94.4609 34.8239H87.2852L80.296 25.5282H76.2422V34.8239H69.7189V10.1761H87.3784L92.7835 12.5352V23.169L87.3784 25.5282L94.4609 34.8239ZM76.2422 14.4014V21.3028H86.2601V14.4014H76.2422Z" fill="#EAD512"/>
<path d="M107.23 24.2606V30.5986H120.23V34.8239H100.706V10.1761H120.23V14.4014H107.23V20.0352H117.434V24.2606H107.23Z" fill="#EAD512"/>
<path d="M126.279 22.3239V12.3592L131.684 10H143.473L148.878 12.3592V17.0423H142.355V14.2254H132.803V20.1056H143.473L148.878 22.4648V32.6408L143.473 35H131.218L125.813 32.6408V27.9577H132.337V30.7746H142.355V24.6831H131.684L126.279 22.3239Z" fill="#EAD512"/>
<path d="M174.285 27.6056H180.808V32.6408L175.403 35H162.217L156.812 32.6408V12.3592L162.217 10H175.403L180.808 12.3592V17.3944H174.285V14.2254H163.335V30.7746H174.285V27.6056Z" fill="#EAD512"/>
<path d="M203.351 10.1761L215 34.8239H208.57L206.1 29.507H193.892L191.423 34.8239H184.993L196.641 10.1761H203.351ZM199.95 16.3732L195.849 25.2817H204.097L200.043 16.3732H199.95Z" fill="#EAD512"/>
<path d="M10.6638 20V29H29V35H0V0H29V6.5625H10.6638V14H25.0567V20H10.6638Z" fill="#EAD512"/>
<mask id="path-3-outside-1_44_30" maskUnits="userSpaceOnUse" x="29" y="0" width="187" height="7" fill="black">
<rect fill="white" x="29" width="187" height="7"/>
<path d="M29 0H216V6H29V0Z"/>
</mask>
<path d="M29 0H216V6H29V0Z" fill="#EAD512"/>
<path d="M216 5.44H29V6.56H216V5.44Z" fill="#EAD512" mask="url(#path-3-outside-1_44_30)"/>
</svg>
